<mxfile host="app.diagrams.net" modified="2024-06-15T22:12:09.446Z" agent="Mozilla/5.0 (Windows NT 10.0; Win64; x64) AppleWebKit/537.36 (KHTML, like Gecko) Chrome/125.0.0.0 Safari/537.36" etag="9XMn8zIpOVvJB7x_gQRS" version="24.5.4" type="device">
  <diagram name="Página-1" id="uIj_RN81ufE7bchY4Tgs">
    <mxGraphModel dx="880" dy="468" grid="1" gridSize="10" guides="1" tooltips="1" connect="1" arrows="1" fold="1" page="1" pageScale="1" pageWidth="827" pageHeight="1169" math="0" shadow="0">
      <root>
        <mxCell id="0" />
        <mxCell id="1" parent="0" />
        <mxCell id="2wsIAn81svUz3b-bWaMq-1" value="Usuário" style="shape=umlActor;verticalLabelPosition=bottom;verticalAlign=top;html=1;" vertex="1" parent="1">
          <mxGeometry x="190" y="190" width="30" height="60" as="geometry" />
        </mxCell>
        <mxCell id="2wsIAn81svUz3b-bWaMq-2" value="Cadastrar Conta" style="ellipse;whiteSpace=wrap;html=1;" vertex="1" parent="1">
          <mxGeometry x="354" y="140" width="120" height="80" as="geometry" />
        </mxCell>
        <mxCell id="2wsIAn81svUz3b-bWaMq-4" value="" style="endArrow=none;html=1;rounded=0;entryX=0;entryY=0.5;entryDx=0;entryDy=0;" edge="1" parent="1" target="2wsIAn81svUz3b-bWaMq-2">
          <mxGeometry width="50" height="50" relative="1" as="geometry">
            <mxPoint x="230" y="220" as="sourcePoint" />
            <mxPoint x="280" y="190" as="targetPoint" />
          </mxGeometry>
        </mxCell>
        <mxCell id="2wsIAn81svUz3b-bWaMq-5" value="Sistema" style="shape=umlActor;verticalLabelPosition=bottom;verticalAlign=top;html=1;" vertex="1" parent="1">
          <mxGeometry x="760" y="190" width="30" height="60" as="geometry" />
        </mxCell>
        <mxCell id="2wsIAn81svUz3b-bWaMq-6" value="" style="endArrow=none;html=1;rounded=0;exitX=1;exitY=0.5;exitDx=0;exitDy=0;" edge="1" parent="1" source="2wsIAn81svUz3b-bWaMq-2" target="2wsIAn81svUz3b-bWaMq-5">
          <mxGeometry width="50" height="50" relative="1" as="geometry">
            <mxPoint x="474" y="190" as="sourcePoint" />
            <mxPoint x="598" y="150" as="targetPoint" />
          </mxGeometry>
        </mxCell>
        <mxCell id="2wsIAn81svUz3b-bWaMq-7" value="Manter dados do usuário" style="ellipse;whiteSpace=wrap;html=1;" vertex="1" parent="1">
          <mxGeometry x="560" y="210" width="120" height="80" as="geometry" />
        </mxCell>
        <mxCell id="2wsIAn81svUz3b-bWaMq-8" value="" style="endArrow=none;html=1;rounded=0;" edge="1" parent="1" source="2wsIAn81svUz3b-bWaMq-7">
          <mxGeometry width="50" height="50" relative="1" as="geometry">
            <mxPoint x="737" y="320" as="sourcePoint" />
            <mxPoint x="750" y="240" as="targetPoint" />
          </mxGeometry>
        </mxCell>
        <mxCell id="2wsIAn81svUz3b-bWaMq-10" value="Realizar cadastro" style="ellipse;whiteSpace=wrap;html=1;" vertex="1" parent="1">
          <mxGeometry x="380" y="380" width="120" height="80" as="geometry" />
        </mxCell>
        <mxCell id="2wsIAn81svUz3b-bWaMq-11" value="" style="endArrow=none;html=1;rounded=0;exitX=0.933;exitY=0.263;exitDx=0;exitDy=0;exitPerimeter=0;" edge="1" parent="1" source="2wsIAn81svUz3b-bWaMq-10">
          <mxGeometry width="50" height="50" relative="1" as="geometry">
            <mxPoint x="629" y="264" as="sourcePoint" />
            <mxPoint x="760" y="250" as="targetPoint" />
          </mxGeometry>
        </mxCell>
        <mxCell id="2wsIAn81svUz3b-bWaMq-12" value="" style="endArrow=none;html=1;rounded=0;" edge="1" parent="1" target="2wsIAn81svUz3b-bWaMq-10">
          <mxGeometry width="50" height="50" relative="1" as="geometry">
            <mxPoint x="240" y="230" as="sourcePoint" />
            <mxPoint x="364" y="190" as="targetPoint" />
          </mxGeometry>
        </mxCell>
        <mxCell id="2wsIAn81svUz3b-bWaMq-13" value="Validar dados do usuário&amp;nbsp;" style="ellipse;whiteSpace=wrap;html=1;" vertex="1" parent="1">
          <mxGeometry x="630" y="370" width="120" height="80" as="geometry" />
        </mxCell>
        <mxCell id="2wsIAn81svUz3b-bWaMq-14" value="&amp;lt;&amp;lt;exetend&amp;gt;&amp;gt;" style="endArrow=open;startArrow=none;endFill=0;startFill=0;endSize=8;html=1;verticalAlign=bottom;dashed=1;labelBackgroundColor=none;rounded=0;entryX=1;entryY=0.5;entryDx=0;entryDy=0;" edge="1" parent="1" target="2wsIAn81svUz3b-bWaMq-10">
          <mxGeometry width="160" relative="1" as="geometry">
            <mxPoint x="630" y="414" as="sourcePoint" />
            <mxPoint x="549" y="390" as="targetPoint" />
          </mxGeometry>
        </mxCell>
        <mxCell id="2wsIAn81svUz3b-bWaMq-15" value="" style="endArrow=none;html=1;rounded=0;exitX=0.583;exitY=0;exitDx=0;exitDy=0;exitPerimeter=0;" edge="1" parent="1" source="2wsIAn81svUz3b-bWaMq-13" target="2wsIAn81svUz3b-bWaMq-5">
          <mxGeometry width="50" height="50" relative="1" as="geometry">
            <mxPoint x="670" y="300" as="sourcePoint" />
            <mxPoint x="801" y="286" as="targetPoint" />
          </mxGeometry>
        </mxCell>
        <mxCell id="2wsIAn81svUz3b-bWaMq-16" value="Acessar página de Login" style="ellipse;whiteSpace=wrap;html=1;" vertex="1" parent="1">
          <mxGeometry x="380" y="520" width="120" height="80" as="geometry" />
        </mxCell>
        <mxCell id="2wsIAn81svUz3b-bWaMq-17" value="&amp;lt;&amp;lt;exetend&amp;gt;&amp;gt;" style="endArrow=open;startArrow=none;endFill=0;startFill=0;endSize=8;html=1;verticalAlign=bottom;dashed=1;labelBackgroundColor=none;rounded=0;exitX=0.5;exitY=0;exitDx=0;exitDy=0;" edge="1" parent="1" source="2wsIAn81svUz3b-bWaMq-16" target="2wsIAn81svUz3b-bWaMq-10">
          <mxGeometry width="160" relative="1" as="geometry">
            <mxPoint x="530" y="510" as="sourcePoint" />
            <mxPoint x="390" y="516" as="targetPoint" />
          </mxGeometry>
        </mxCell>
      </root>
    </mxGraphModel>
  </diagram>
</mxfile>
